# xmcd CD database file
#
# Track frame offsets:
#	150
#	19135
#	34455
#	56087
#	75695
#	101355
#	120725
#	150090
#	175495
#
# Disc length: 2508 seconds
#
# Revision: 0
# Processed by: cddbd v1.5PL3 Copyright (c) Steve Scherf et al.
# Submitted via: CDex 1.50beta10
#
DISCID=6a09ca09
DTITLE=Eddie Taylor - Still Not Ready For Eddie
DYEAR=1987
DGENRE=Blues
TTITLE0=Bad Boy
TTITLE1=If You Don't Want Me Baby
TTITLE2=Clouds In My Heart
TTITLE3=Knocking At Your Door
TTITLE4=Sittin' Here Thinking
TTITLE5=Bigtown Playboy
TTITLE6=Look On Yonder's Wall
TTITLE7=Anna Lee
TTITLE8=Boogaloo Farm
EXTD=YEAR: 1987
EXTT0=
EXTT1=
EXTT2=
EXTT3=
EXTT4=
EXTT5=
EXTT6=
EXTT7=
EXTT8=
PLAYORDER=
